<svg xmlns="http://www.w3.org/2000/svg" viewBox="0 0 500 500"><circle cx="250" cy="250" r="250" fill="#f2fcfc"/><path fill="#aeeded" d="M250 500c106.65 0 197.69-66.79 233.61-160.82a47.64 47.64 0 01-8.74-5.31c-10.66-8.1-35.56-6.09-41.84-2.09-24.29 15.46-28.24 1.05-57.53-2.09-12.16-1.31-18.83 11.5-42.89 7.32-26.09-4.54-40.79-16.74-75.31-11.51s-47.07 18.83-77.41 8.37-18.82 3.14-52.3 5.23-28.24-11.5-54.39-10.46-29.64 17.69-58.58 4.19c-.21-.11-.44-.21-.66-.31C48.05 430 140.85 500 250 500z"/><path fill="#feeaa9" d="M316 327c-7.74-8.78-21-14-38-17-18-10-97 6-111 13s-22 18-9 29 28 9 38 19 90 0 107-6c20-3 28-21 13-38z"/><path fill="none" stroke="#714d04" stroke-miterlimit="10" stroke-width="15" d="M266 223c-32.41 16.2-40.91 54.85-37.59 93.54"/><path fill="#54b26f" d="M268 262s26.52-24-2-39c0 0 6.94 16.51 2 39z"/><path fill="#54b26f" d="M254.76 260.21S288.19 246.35 266 223c0 0 .67 17.5-11.24 37.21z"/><path fill="#54b26f" d="M282.3 258.36S298.1 225.73 266 223c0 0 12.12 12.71 16.3 35.36zM224 207.88c25.26-17.06 43.51 4.09 42 15.12-15.9-10-42-15.12-42-15.12z"/><path fill="#54b26f" d="M222 220.42c19.2-23.67 42.2-8.41 44 2.58-18.13-4.94-44-2.58-44-2.58z"/><path fill="#54b26f" d="M229.41 198.13c28.76-10.08 40.86 14.59 36.59 24.87-12.84-13.72-36.59-24.87-36.59-24.87z"/><g fill="#1a1446"><path d="M224 74.41h-5.47V51.66H224zM234 70.19h10.88v4.22h-17.76v-2.89L238 55.89h-10.95v-4.23h17.68v2.81zM253.48 70.19h10.87v4.22h-17.72v-2.89l10.85-15.63h-10.91v-4.23h17.67v2.81zM275.16 61.54l4.19-9.88h5.92L278 66.24v8.17h-5.57v-8.17l-7.31-14.58H271zM218.34 104.19a5.43 5.43 0 010-.9l.11-.87a6.71 6.71 0 01-2 1.48 5.33 5.33 0 01-2.44.52 3.64 3.64 0 01-2.61-1 3 3 0 01-.9-2.49 3.73 3.73 0 01.86-2.18 5 5 0 012.19-1.43 9.29 9.29 0 013.17-.51h2.59l.21-1.45a2.55 2.55 0 00-.56-2.09 2.78 2.78 0 00-2.07-.83 4.07 4.07 0 00-2.41.69 3 3 0 00-1.33 1.87h-1.37a3.87 3.87 0 011.71-2.72 5.75 5.75 0 013.49-1 4.11 4.11 0 013 1.18 3.6 3.6 0 01.86 3l-1.06 6.37-.09 1a5.23 5.23 0 00.09 1.25v.15zm-4.15-1a4.57 4.57 0 002.47-.62 5.56 5.56 0 002-1.88l.48-2.81h-2.24a7 7 0 00-3.48.76 2.69 2.69 0 00-1.49 2.16 2 2 0 00.55 1.71 2.41 2.41 0 001.71.69zM226.58 91.51l-.43 2.16a6.27 6.27 0 012-1.8 4.64 4.64 0 012.37-.6 3.09 3.09 0 012.66 1.28 4.94 4.94 0 01.58 3.39l-1.38 8.25H231l1.38-8.27a7 7 0 000-1.29 2.12 2.12 0 00-2.28-2.14 3.79 3.79 0 00-2.3.73 6.42 6.42 0 00-1.87 2.28l-1.5 8.69H223l2.2-12.68zM236.5 97.81a10.29 10.29 0 011.09-3.53 5.92 5.92 0 012-2.29 4.7 4.7 0 012.67-.72 4.55 4.55 0 012 .52 3.55 3.55 0 011.46 1.51l1.29-7.11h1.39l-3.13 18H244l.31-1.69a4.91 4.91 0 01-4.1 1.92 3.39 3.39 0 01-2.77-1.38 6 6 0 01-1.05-3.58 8.07 8.07 0 01.06-1.4zm1.41.23a11.38 11.38 0 00-.07 1.68 4.36 4.36 0 00.74 2.52 2.48 2.48 0 002 1 3.86 3.86 0 002.28-.6 5.58 5.58 0 001.67-1.68l1-6a3.65 3.65 0 00-1.12-1.79 3.14 3.14 0 00-2-.68 3.53 3.53 0 00-3 1.36 7.67 7.67 0 00-1.53 4zM259.68 88.26l-.56 3.25h2.54l-.2 1.14h-2.54l-1.41 8.46v.73c0 .85.39 1.29 1.17 1.31a8.38 8.38 0 001.14-.08l-.06 1.15a4.79 4.79 0 01-1.41.18 2.07 2.07 0 01-1.79-.87 3.72 3.72 0 01-.41-2.43l1.4-8.45h-2.28l.21-1.14h2.25l.58-3.25zM265.49 93.65a5.19 5.19 0 014.32-2.38 3.09 3.09 0 012.66 1.28 4.94 4.94 0 01.58 3.39l-1.38 8.25h-1.38l1.38-8.27a7 7 0 000-1.29 2.11 2.11 0 00-2.27-2.14 3.77 3.77 0 00-2.3.73 6.42 6.42 0 00-1.87 2.28l-1.5 8.69h-1.38l3.12-18h1.39zM280.28 104.42a4.44 4.44 0 01-2.63-.85 4.73 4.73 0 01-1.64-2.25 7 7 0 01-.37-3.08v-.39a8.39 8.39 0 011-3.35 6.5 6.5 0 012.36-2.43 5.23 5.23 0 012.88-.8 4 4 0 012.4.77 4.27 4.27 0 011.42 2.09 7 7 0 01.28 3l-.09.86h-8.78v.28a5.54 5.54 0 00.18 2.44 3.9 3.9 0 001.19 1.86 3.13 3.13 0 002 .7 4 4 0 002-.43 6.53 6.53 0 001.66-1.25l.82.66a5.56 5.56 0 01-4.62 2.22zm1.48-12a3.66 3.66 0 00-2.76 1.12 7 7 0 00-1.82 3.2h7.36v-.18a4.12 4.12 0 00-.59-2.87 2.65 2.65 0 00-2.19-1.22zM168.2 160.84l-4.87 2.48L153 143.05l4.87-2.48zM182.93 148.08a2.25 2.25 0 00-1.46-1.45 10.8 10.8 0 00-3.29-.23 29.58 29.58 0 01-3.76-.06c-3.27-.31-5.36-1.64-6.26-4a5.3 5.3 0 01-.15-3.51 7.06 7.06 0 012.11-3.21 12 12 0 013.95-2.36 10.7 10.7 0 014.42-.75 7 7 0 013.71 1.26 6.42 6.42 0 012.32 3.07l-5.11 1.94a2.78 2.78 0 00-1.56-1.71 3.33 3.33 0 00-2.43.1 3.75 3.75 0 00-1.93 1.43 1.91 1.91 0 001.22 3 11.82 11.82 0 003.61.2 19.68 19.68 0 014.2.15 6.51 6.51 0 015.53 4.16 5.56 5.56 0 01-.44 5.19 10 10 0 01-5.16 3.78 12.14 12.14 0 01-5 .85 7.57 7.57 0 01-4.12-1.34 7.1 7.1 0 01-2.47-3.31l5.14-2a3.49 3.49 0 001.84 2.18 4.42 4.42 0 003.18-.28 3.45 3.45 0 001.8-1.31 1.89 1.89 0 00.11-1.79zM211.7 135.17a13.25 13.25 0 01.14 6 9.13 9.13 0 01-2.51 4.64 10.48 10.48 0 01-10.05 2.4 9 9 0 01-4.29-2.92 12.94 12.94 0 01-2.59-5.25l-.29-1.25a13.41 13.41 0 01-.15-6 9.15 9.15 0 012.52-4.64 9.82 9.82 0 014.76-2.54 9.7 9.7 0 015.33.16 9.32 9.32 0 014.33 3 13 13 0 012.56 5.37zm-5.65.35a9.57 9.57 0 00-2.27-4.76 3.64 3.64 0 00-3.56-1q-4 .94-2.83 7l.36 1.63a9.89 9.89 0 002.25 4.75 3.63 3.63 0 003.62 1 3.59 3.59 0 002.72-2.45 9.51 9.51 0 00-.05-5.2zM224.69 140.22l9.49-1.07.47 4.19-14.94 1.66-2.54-22.61 5.45-.61zM252.94 138.79l-7.51-.08-1.37 4.23-5.86-.07 8.62-22.65 5.15.06 8.14 22.85-5.89-.07zm-6.15-4.3h4.89l-2.36-7.91zM282.51 126.85l-6.79-.75-2 18.4-5.45-.6 2-18.4-6.66-.74.47-4.21 18.9 2.1zM306.26 139.88a13.32 13.32 0 01-2.56 5.45 9.21 9.21 0 01-4.32 3 10.55 10.55 0 01-10.07-2.33 9 9 0 01-2.53-4.53 13.13 13.13 0 010-5.85l.3-1.25a13.38 13.38 0 012.56-5.45 9 9 0 014.33-3 10.4 10.4 0 0110.09 2.38 9.27 9.27 0 012.52 4.63 12.92 12.92 0 01-.11 6zm-5.2-2.21a9.52 9.52 0 00.08-5.27 3.61 3.61 0 00-2.74-2.46q-4-1-5.68 5l-.4 1.62a9.93 9.93 0 00-.11 5.26 3.66 3.66 0 002.8 2.51 3.59 3.59 0 003.52-1 9.57 9.57 0 002.28-4.68zM319.74 147.72l-2.74-1.07-2.9 7.5-5.12-2 8.18-21.15 8.35 3.23a10 10 0 015.26 4 6.09 6.09 0 01.29 5.55 7.37 7.37 0 01-2.31 3.32 6.84 6.84 0 01-3.75 1.2l1.11 10.28-.08.22-5.48-2.12zm-1.25-5l3.24 1.25a3.28 3.28 0 004.14-4.22 3.11 3.11 0 00-1.88-1.63l-3.23-1.25zM343.87 161.54a2.28 2.28 0 00.18-2 10.57 10.57 0 00-1.93-2.68 29.09 29.09 0 01-2.36-2.93q-2.79-4.06-.93-7.37a5.38 5.38 0 012.6-2.37 7.14 7.14 0 013.82-.43 12.08 12.08 0 014.34 1.52 10.8 10.8 0 013.41 2.92 7.06 7.06 0 011.41 3.66 6.58 6.58 0 01-.88 3.75l-4.76-2.69a2.73 2.73 0 00.31-2.29 3.24 3.24 0 00-1.63-1.8 3.72 3.72 0 00-2.34-.57 2 2 0 00-1.55 1 2 2 0 000 1.85 11.77 11.77 0 002.15 2.89 20.84 20.84 0 012.58 3.33 6.52 6.52 0 01.33 6.91 5.53 5.53 0 01-4.26 3 10 10 0 01-6.21-1.54 12.33 12.33 0 01-3.88-3.33 7.49 7.49 0 01-1.6-4 7 7 0 011-4l4.79 2.7a3.5 3.5 0 00-.5 2.81 4.49 4.49 0 002.25 2.26 3.52 3.52 0 002.16.55 2 2 0 001.5-1.15z"/></g></svg>